<svg width="121" height="35" viewBox="0 0 121 35" fill="none" xmlns="http://www.w3.org/2000/svg">
<path d="M10.904 34.624C8.92 34.624 7.16 34.112 5.624 33.088C4.12 32.032 2.936 30.528 2.072 28.576C1.208 26.592 0.776 24.192 0.776 21.376C0.776 18.72 1.16 16.416 1.928 14.464C2.728 12.512 3.864 11.008 5.336 9.952C6.808 8.864 8.584 8.32 10.664 8.32C12.328 8.32 13.72 8.656 14.84 9.328C15.992 9.968 16.92 10.912 17.624 12.16C18.328 13.408 18.872 14.928 19.256 16.72H20.024C19.864 15.6 19.704 14.528 19.544 13.504C19.384 12.448 19.256 11.456 19.16 10.528C19.064 9.6 19.016 8.752 19.016 7.984V0.256H25.112V22.528V34H19.88L20.024 26.512H19.304C18.92 28.304 18.36 29.808 17.624 31.024C16.888 32.208 15.96 33.104 14.84 33.712C13.752 34.32 12.44 34.624 10.904 34.624ZM12.776 29.632C13.8 29.632 14.696 29.392 15.464 28.912C16.264 28.432 16.92 27.808 17.432 27.04C17.976 26.272 18.376 25.44 18.632 24.544C18.888 23.616 19.016 22.72 19.016 21.856V21.184C19.016 20.512 18.936 19.824 18.776 19.12C18.616 18.384 18.36 17.68 18.008 17.008C17.688 16.336 17.272 15.728 16.76 15.184C16.248 14.608 15.656 14.16 14.984 13.84C14.344 13.52 13.608 13.36 12.776 13.36C11.56 13.36 10.52 13.712 9.656 14.416C8.824 15.12 8.184 16.096 7.736 17.344C7.288 18.56 7.064 19.968 7.064 21.568C7.064 23.168 7.288 24.576 7.736 25.792C8.216 27.008 8.872 27.952 9.704 28.624C10.568 29.296 11.592 29.632 12.776 29.632ZM40.8796 34.624C38.4476 34.624 36.2876 34.128 34.3996 33.136C32.5436 32.144 31.0716 30.672 29.9836 28.72C28.9276 26.736 28.3996 24.304 28.3996 21.424C28.3996 18.448 28.9436 16 30.0316 14.08C31.1196 12.128 32.5916 10.672 34.4476 9.712C36.3356 8.752 38.4636 8.272 40.8316 8.272C43.2636 8.272 45.4076 8.768 47.2636 9.76C49.1516 10.752 50.6236 12.224 51.6796 14.176C52.7676 16.128 53.3116 18.576 53.3116 21.52C53.3116 24.496 52.7676 26.96 51.6796 28.912C50.5916 30.832 49.1036 32.272 47.2156 33.232C45.3276 34.16 43.2156 34.624 40.8796 34.624ZM41.0236 30.016C41.8556 30.016 42.6396 29.872 43.3756 29.584C44.1436 29.264 44.7996 28.784 45.3436 28.144C45.9196 27.504 46.3676 26.656 46.6876 25.6C47.0076 24.544 47.1676 23.28 47.1676 21.808C47.1676 20.272 46.9916 18.96 46.6396 17.872C46.2876 16.752 45.8076 15.84 45.1996 15.136C44.6236 14.432 43.9356 13.92 43.1356 13.6C42.3676 13.28 41.5356 13.12 40.6396 13.12C39.8396 13.12 39.0716 13.28 38.3356 13.6C37.5996 13.888 36.9436 14.352 36.3676 14.992C35.7916 15.632 35.3436 16.48 35.0236 17.536C34.7036 18.592 34.5436 19.856 34.5436 21.328C34.5436 22.864 34.7036 24.192 35.0236 25.312C35.3756 26.4 35.8556 27.296 36.4636 28C37.0716 28.672 37.7596 29.184 38.5276 29.536C39.2956 29.856 40.1276 30.016 41.0236 30.016ZM65.3555 34.528C63.9475 34.528 62.7475 34.336 61.7555 33.952C60.7955 33.568 59.9955 33.008 59.3555 32.272C58.7155 31.504 58.2515 30.592 57.9635 29.536C57.6755 28.448 57.5315 27.232 57.5315 25.888V13.792H54.1235L54.2195 9.232H56.0435C57.1635 9.168 57.9795 8.896 58.4915 8.416C59.0355 7.936 59.3555 7.168 59.4515 6.112L59.8835 3.328H63.4355V8.944H69.9155V13.936H63.4355V25.6C63.4355 26.912 63.7395 27.808 64.3475 28.288C64.9875 28.768 65.7875 29.008 66.7475 29.008C67.2915 29.008 67.8515 28.944 68.4275 28.816C69.0035 28.656 69.5315 28.416 70.0115 28.096V33.76C69.0835 34.08 68.2355 34.288 67.4675 34.384C66.6995 34.48 65.9955 34.528 65.3555 34.528ZM83.897 34.624C81.753 34.624 79.897 34.304 78.329 33.664C76.761 33.024 75.449 32.112 74.393 30.928C73.369 29.744 72.601 28.368 72.089 26.8C71.577 25.232 71.321 23.536 71.321 21.712C71.321 19.824 71.577 18.064 72.089 16.432C72.633 14.8 73.417 13.376 74.441 12.16C75.497 10.912 76.793 9.952 78.329 9.28C79.865 8.608 81.657 8.272 83.705 8.272C85.305 8.272 86.729 8.496 87.977 8.944C89.257 9.36 90.345 9.968 91.241 10.768C92.137 11.536 92.841 12.448 93.353 13.504C93.865 14.56 94.169 15.712 94.265 16.96L88.697 18.304C88.665 17.248 88.425 16.336 87.977 15.568C87.561 14.768 86.969 14.16 86.201 13.744C85.433 13.328 84.537 13.12 83.513 13.12C82.617 13.12 81.801 13.296 81.065 13.648C80.361 13.968 79.737 14.48 79.193 15.184C78.649 15.856 78.217 16.72 77.897 17.776C77.609 18.8 77.465 20.032 77.465 21.472C77.465 23.392 77.721 24.976 78.233 26.224C78.777 27.472 79.529 28.416 80.489 29.056C81.481 29.664 82.649 29.968 83.993 29.968C85.305 29.968 86.361 29.712 87.161 29.2C87.961 28.656 88.553 27.968 88.937 27.136C89.321 26.272 89.529 25.344 89.561 24.352L95.033 25.264C94.969 26.608 94.681 27.856 94.169 29.008C93.689 30.128 92.985 31.12 92.057 31.984C91.129 32.816 89.993 33.472 88.649 33.952C87.305 34.4 85.721 34.624 83.897 34.624ZM97.4728 34V19.648V0.256H103.569V7.6C103.569 8.24 103.537 8.976 103.473 9.808C103.441 10.64 103.361 11.52 103.233 12.448C103.137 13.344 103.025 14.256 102.897 15.184C102.801 16.08 102.689 16.944 102.561 17.776H103.329C103.713 15.664 104.257 13.904 104.961 12.496C105.697 11.088 106.641 10.032 107.793 9.328C108.977 8.624 110.401 8.272 112.065 8.272C113.569 8.272 114.833 8.544 115.857 9.088C116.881 9.632 117.697 10.368 118.305 11.296C118.913 12.192 119.377 13.184 119.697 14.272C120.017 15.36 120.225 16.48 120.321 17.632C120.417 18.752 120.465 19.792 120.465 20.752V34H114.417V21.472C114.417 20.448 114.353 19.472 114.225 18.544C114.097 17.584 113.873 16.736 113.553 16C113.265 15.232 112.817 14.624 112.209 14.176C111.601 13.728 110.801 13.504 109.809 13.504C108.529 13.504 107.425 13.92 106.497 14.752C105.601 15.584 104.897 16.768 104.385 18.304C103.905 19.808 103.633 21.6 103.569 23.68V34H97.4728Z" fill="white"/>
</svg>
