<svg width="81" height="24" viewBox="0 0 81 24" fill="none" xmlns="http://www.w3.org/2000/svg">
<path d="M7.41608 23.6509C6.09245 23.6509 4.91827 23.3042 3.89352 22.6108C2.89013 21.8957 2.10022 20.8772 1.52381 19.5554C0.947389 18.2119 0.65918 16.5867 0.65918 14.6798C0.65918 12.8813 0.915365 11.3211 1.42774 9.9993C1.96146 8.67748 2.71934 7.65903 3.70138 6.94394C4.68343 6.20719 5.86829 5.83881 7.25596 5.83881C8.3661 5.83881 9.29477 6.06634 10.042 6.52139C10.8105 6.95478 11.4297 7.59402 11.8993 8.43912C12.369 9.28422 12.7319 10.3135 12.9881 11.527H13.5005C13.3937 10.7686 13.287 10.0426 13.1803 9.34922C13.0735 8.63414 12.9881 7.9624 12.9241 7.33399C12.86 6.70558 12.828 6.13135 12.828 5.61129V0.378174H16.8949V23.2284H13.4044L13.5005 18.1578H13.0201C12.764 19.3712 12.3903 20.3897 11.8993 21.2131C11.4083 22.0149 10.7892 22.6216 10.042 23.0333C9.31612 23.445 8.44082 23.6509 7.41608 23.6509ZM8.66498 20.2705C9.34814 20.2705 9.94591 20.108 10.4583 19.7829C10.992 19.4579 11.4297 19.0354 11.7712 18.5153C12.1342 17.9952 12.401 17.4318 12.5718 16.8251C12.7426 16.1967 12.828 15.59 12.828 15.0049V14.5498C12.828 14.0948 12.7746 13.6289 12.6679 13.1522C12.5611 12.6538 12.3903 12.1771 12.1555 11.722C11.942 11.2669 11.6645 10.8552 11.3229 10.4869C10.9813 10.0968 10.5864 9.79344 10.1381 9.57675C9.71107 9.36006 9.22005 9.25171 8.66498 9.25171C7.85373 9.25171 7.15989 9.49007 6.58347 9.9668C6.0284 10.4435 5.60143 11.1044 5.30255 11.9495C5.00366 12.773 4.85422 13.7264 4.85422 14.8099C4.85422 15.8933 5.00366 16.8468 5.30255 17.6702C5.62278 18.4936 6.06043 19.1329 6.6155 19.5879C7.19191 20.043 7.87508 20.2705 8.66498 20.2705Z" fill="white"/>
<path d="M27.383 23.6509C25.7605 23.6509 24.3195 23.315 23.0599 22.6433C21.8217 21.9715 20.8396 20.9748 20.1138 19.6529C19.4093 18.3094 19.057 16.6626 19.057 14.7124C19.057 12.6971 19.4199 11.0394 20.1458 9.73927C20.8717 8.41745 21.8537 7.4315 23.0919 6.78142C24.3515 6.13135 25.7712 5.80631 27.351 5.80631C28.9735 5.80631 30.4039 6.14218 31.6421 6.81393C32.9017 7.48567 33.8838 8.48246 34.5883 9.80428C35.3141 11.1261 35.6771 12.7838 35.6771 14.7774C35.6771 16.7926 35.3141 18.4611 34.5883 19.7829C33.8624 21.0831 32.8697 22.0582 31.6101 22.7083C30.3505 23.3367 28.9415 23.6509 27.383 23.6509ZM27.4791 20.5305C28.0342 20.5305 28.5572 20.433 29.0483 20.238C29.5606 20.0213 29.9983 19.6963 30.3612 19.2629C30.7455 18.8295 31.0444 18.2553 31.2579 17.5402C31.4713 16.8251 31.5781 15.9692 31.5781 14.9724C31.5781 13.9323 31.4607 13.0438 31.2258 12.3071C30.991 11.5486 30.6708 10.9311 30.2651 10.4544C29.8809 9.97763 29.4219 9.63092 28.8881 9.41423C28.3758 9.19754 27.8207 9.08919 27.2229 9.08919C26.6892 9.08919 26.1768 9.19754 25.6858 9.41423C25.1948 9.60926 24.7571 9.92346 24.3729 10.3568C23.9886 10.7902 23.6897 11.3645 23.4762 12.0795C23.2627 12.7946 23.156 13.6506 23.156 14.6473C23.156 15.6875 23.2627 16.5867 23.4762 17.3452C23.7111 18.0819 24.0313 18.6887 24.4369 19.1654C24.8425 19.6204 25.3015 19.9671 25.8139 20.2055C26.3263 20.4222 26.8814 20.5305 27.4791 20.5305Z" fill="white"/>
<path d="M43.7121 23.5859C42.7728 23.5859 41.9722 23.4559 41.3104 23.1958C40.6699 22.9358 40.1362 22.5566 39.7092 22.0582C39.2823 21.5382 38.9727 20.9206 38.7806 20.2055C38.5884 19.4687 38.4924 18.6453 38.4924 17.7352V9.54425H36.2187L36.2827 6.45639H37.4996C38.2468 6.41305 38.7912 6.22886 39.1328 5.90382C39.4957 5.57878 39.7092 5.05872 39.7733 4.34364L40.0615 2.45842H42.4312V6.26136H46.7543V9.64176H42.4312V17.5402C42.4312 18.4286 42.634 19.0354 43.0396 19.3604C43.4666 19.6854 44.0003 19.848 44.6408 19.848C45.0037 19.848 45.3773 19.8046 45.7616 19.7179C46.1459 19.6096 46.4982 19.4471 46.8184 19.2304V23.0658C46.1993 23.2825 45.6335 23.4234 45.1212 23.4884C44.6088 23.5534 44.1391 23.5859 43.7121 23.5859Z" fill="white"/>
<path d="M56.0821 23.6509C54.6517 23.6509 53.4135 23.4342 52.3674 23.0008C51.3213 22.5674 50.446 21.9499 49.7415 21.1481C49.0583 20.3463 48.546 19.4146 48.2044 18.3528C47.8628 17.291 47.692 16.1425 47.692 14.9074C47.692 13.6289 47.8628 12.4371 48.2044 11.332C48.5673 10.2268 49.0904 9.26255 49.7735 8.43912C50.478 7.59402 51.3427 6.94394 52.3674 6.48889C53.3922 6.03384 54.5877 5.80631 55.954 5.80631C57.0214 5.80631 57.9715 5.95799 58.8041 6.26136C59.658 6.54306 60.3839 6.95478 60.9816 7.49651C61.5794 8.01657 62.0491 8.63414 62.3907 9.34922C62.7323 10.0643 62.9351 10.8444 62.9991 11.6895L59.2844 12.5996C59.2631 11.8845 59.103 11.2669 58.8041 10.7469C58.5265 10.2052 58.1316 9.79344 57.6192 9.51174C57.1068 9.23004 56.5091 9.08919 55.8259 9.08919C55.2281 9.08919 54.6838 9.20837 54.1927 9.44674C53.7231 9.66343 53.3068 10.0101 52.9438 10.4869C52.5809 10.9419 52.2927 11.527 52.0792 12.2421C51.8871 12.9355 51.791 13.7697 51.791 14.7449C51.791 16.045 51.9618 17.1176 52.3034 17.9627C52.6663 18.8078 53.168 19.4471 53.8085 19.8805C54.4703 20.2922 55.2495 20.498 56.1461 20.498C57.0215 20.498 57.726 20.3247 58.2597 19.978C58.7934 19.6096 59.1884 19.1437 59.4445 18.5803C59.7007 17.9952 59.8395 17.3668 59.8608 16.6951L63.5115 17.3127C63.4688 18.2228 63.2766 19.0679 62.9351 19.848C62.6148 20.6064 62.1452 21.2781 61.526 21.8632C60.9069 22.4266 60.149 22.8708 59.2524 23.1958C58.3557 23.4992 57.299 23.6509 56.0821 23.6509Z" fill="white"/>
<path d="M65.1392 23.2284V0.378174H69.2061V5.35126C69.2061 5.78464 69.1848 6.28303 69.1421 6.84643C69.1207 7.40983 69.0673 8.00573 68.9819 8.63414C68.9179 9.24088 68.8432 9.85845 68.7578 10.4869C68.6937 11.0936 68.619 11.6787 68.5336 12.2421H69.046C69.3022 10.8119 69.6651 9.62009 70.1348 8.66664C70.6258 7.7132 71.2556 6.99812 72.0241 6.52139C72.8141 6.04467 73.7641 5.80631 74.8742 5.80631C75.8776 5.80631 76.7209 5.9905 77.4041 6.35887C78.0872 6.72725 78.6316 7.22564 79.0372 7.85405C79.4429 8.46079 79.7524 9.13253 79.9659 9.86929C80.1794 10.606 80.3182 11.3645 80.3822 12.1446C80.4463 12.903 80.4783 13.6072 80.4783 14.2573V23.2284H76.4434V14.7449C76.4434 14.0514 76.4007 13.3905 76.3153 12.7621C76.2299 12.112 76.0804 11.5378 75.8669 11.0394C75.6748 10.5194 75.3759 10.1076 74.9703 9.80428C74.5647 9.50091 74.0309 9.34922 73.3691 9.34922C72.5152 9.34922 71.7786 9.63092 71.1595 10.1943C70.5618 10.7577 70.0921 11.5595 69.7505 12.5996C69.4303 13.6181 69.2488 14.8315 69.2061 16.24V23.2284H65.1392Z" fill="white"/>
</svg>
