<svg width="105" height="25" viewBox="0 0 105 25" fill="none" xmlns="http://www.w3.org/2000/svg">
<path d="M7.38082 23.6622C6.036 23.6622 4.84302 23.31 3.80187 22.6055C2.78241 21.8789 1.97986 20.8442 1.39422 19.5012C0.80857 18.1362 0.515747 16.485 0.515747 14.5476C0.515747 12.7202 0.776034 11.1351 1.29661 9.79209C1.83887 8.44911 2.60889 7.41435 3.60666 6.68782C4.60442 5.93927 5.80825 5.565 7.21814 5.565C8.34605 5.565 9.28959 5.79617 10.0488 6.25851C10.8296 6.69883 11.4587 7.3483 11.9358 8.20693C12.413 9.06556 12.7818 10.1113 13.0421 11.3442H13.5626C13.4542 10.5737 13.3457 9.83613 13.2373 9.13161C13.1288 8.40508 13.0421 7.72258 12.977 7.08411C12.9119 6.44564 12.8794 5.86222 12.8794 5.33383V0.0169373H17.0114V23.2329H13.465L13.5626 18.0812H13.0746C12.8143 19.3141 12.4347 20.3488 11.9358 21.1854C11.437 22 10.8079 22.6165 10.0488 23.0348C9.31128 23.4531 8.42197 23.6622 7.38082 23.6622ZM8.64972 20.2277C9.34382 20.2277 9.95115 20.0626 10.4717 19.7324C11.014 19.4021 11.4587 18.9728 11.8057 18.4444C12.1744 17.916 12.4456 17.3436 12.6191 16.7272C12.7926 16.0887 12.8794 15.4723 12.8794 14.8778V14.4155C12.8794 13.9531 12.8252 13.4798 12.7167 12.9954C12.6083 12.4891 12.4347 12.0047 12.1961 11.5424C11.9792 11.08 11.6972 10.6617 11.3502 10.2875C11.0031 9.89117 10.6019 9.58294 10.1464 9.36278C9.71256 9.14262 9.21367 9.03254 8.64972 9.03254C7.82548 9.03254 7.12053 9.27471 6.53489 9.75907C5.97093 10.2434 5.53712 10.9149 5.23345 11.7735C4.92978 12.6102 4.77795 13.5789 4.77795 14.6797C4.77795 15.7805 4.92978 16.7492 5.23345 17.5858C5.55881 18.4224 6.00347 19.0719 6.56742 19.5342C7.15307 19.9966 7.84717 20.2277 8.64972 20.2277Z" fill="white"/>
<path d="M27.6675 23.6622C26.019 23.6622 24.5549 23.321 23.2751 22.6385C22.0171 21.956 21.0193 20.9433 20.2818 19.6003C19.566 18.2353 19.2081 16.562 19.2081 14.5806C19.2081 12.5331 19.5769 10.8489 20.3143 9.5279C21.0518 8.18492 22.0496 7.18318 23.3076 6.5227C24.5874 5.86222 26.0298 5.53197 27.6349 5.53197C29.2834 5.53197 30.7367 5.87322 31.9947 6.55572C33.2745 7.23822 34.2722 8.25096 34.988 9.59395C35.7255 10.9369 36.0942 12.6212 36.0942 14.6466C36.0942 16.6941 35.7255 18.3894 34.988 19.7324C34.2505 21.0533 33.2419 22.0441 31.9622 22.7045C30.6824 23.343 29.2509 23.6622 27.6675 23.6622ZM27.7651 20.4919C28.329 20.4919 28.8604 20.3929 29.3593 20.1947C29.8799 19.9745 30.3245 19.6443 30.6933 19.204C31.0837 18.7637 31.3874 18.1802 31.6043 17.4537C31.8212 16.7272 31.9297 15.8575 31.9297 14.8448C31.9297 13.788 31.8104 12.8854 31.5718 12.1368C31.3332 11.3662 31.0078 10.7388 30.5957 10.2544C30.2053 9.77008 29.7389 9.41782 29.1966 9.19766C28.6761 8.9775 28.1121 8.86742 27.5048 8.86742C26.9625 8.86742 26.4419 8.9775 25.9431 9.19766C25.4442 9.3958 24.9995 9.71504 24.6091 10.1554C24.2186 10.5957 23.915 11.1791 23.6981 11.9056C23.4812 12.6322 23.3727 13.5018 23.3727 14.5146C23.3727 15.5713 23.4812 16.485 23.6981 17.2556C23.9367 18.0041 24.262 18.6206 24.6742 19.1049C25.0863 19.5672 25.5526 19.9195 26.0732 20.1617C26.5938 20.3818 27.1577 20.4919 27.7651 20.4919Z" fill="white"/>
<path d="M44.258 23.5962C43.3036 23.5962 42.4902 23.4641 41.8178 23.1999C41.1671 22.9357 40.6248 22.5504 40.191 22.0441C39.7572 21.5157 39.4426 20.8882 39.2474 20.1617C39.0522 19.4131 38.9546 18.5765 38.9546 17.6518V9.32975H36.6446L36.7096 6.19246H37.946C38.7052 6.14843 39.2583 5.96129 39.6053 5.63105C39.9741 5.3008 40.191 4.77242 40.256 4.04589L40.5489 2.13048H42.9565V5.99431H47.3489V9.42883H42.9565V17.4537C42.9565 18.3564 43.1626 18.9728 43.5747 19.3031C44.0085 19.6333 44.5508 19.7984 45.2015 19.7984C45.5702 19.7984 45.9498 19.7544 46.3403 19.6663C46.7307 19.5562 47.0886 19.3911 47.4139 19.171V23.0678C46.7849 23.288 46.2101 23.4311 45.6895 23.4971C45.169 23.5632 44.6918 23.5962 44.258 23.5962Z" fill="white"/>
<path d="M56.826 23.6622C55.3727 23.6622 54.1146 23.4421 53.0518 23.0018C51.989 22.5614 51.0996 21.934 50.3839 21.1194C49.6898 20.3048 49.1692 19.3581 48.8221 18.2793C48.4751 17.2005 48.3016 16.0337 48.3016 14.7787C48.3016 13.4798 48.4751 12.2689 48.8221 11.1461C49.1909 10.0233 49.7223 9.04355 50.4164 8.20693C51.1322 7.3483 52.0107 6.68782 53.0518 6.22548C54.093 5.76314 55.3076 5.53197 56.6958 5.53197C57.7803 5.53197 58.7456 5.68609 59.5915 5.99431C60.4591 6.28052 61.1966 6.69883 61.804 7.24923C62.4113 7.77762 62.8885 8.40508 63.2355 9.13161C63.5826 9.85814 63.7886 10.6507 63.8537 11.5094L60.0796 12.434C60.0579 11.7075 59.8952 11.08 59.5915 10.5516C59.3095 10.0012 58.9083 9.58294 58.3877 9.29673C57.8671 9.01052 57.2598 8.86742 56.5657 8.86742C55.9583 8.86742 55.4052 8.9885 54.9063 9.23068C54.4292 9.45084 54.0062 9.8031 53.6374 10.2875C53.2687 10.7498 52.9759 11.3442 52.759 12.0708C52.5638 12.7753 52.4662 13.6229 52.4662 14.6136C52.4662 15.9346 52.6397 17.0244 52.9867 17.883C53.3555 18.7416 53.8652 19.3911 54.5159 19.8314C55.1883 20.2497 55.98 20.4589 56.891 20.4589C57.7804 20.4589 58.4961 20.2828 59.0384 19.9305C59.5807 19.5562 59.9819 19.0829 60.2422 18.5105C60.5025 17.916 60.6435 17.2776 60.6652 16.5951L64.3743 17.2225C64.3309 18.1472 64.1357 19.0058 63.7886 19.7984C63.4633 20.569 62.9861 21.2515 62.3571 21.8459C61.728 22.4183 60.958 22.8697 60.047 23.1999C59.136 23.5081 58.0623 23.6622 56.826 23.6622Z" fill="white"/>
<path d="M66.028 23.2329V0.0169373H70.1601V5.06964C70.1601 5.50996 70.1384 6.01633 70.095 6.58875C70.0733 7.16117 70.0191 7.76661 69.9323 8.40508C69.8673 9.02153 69.7913 9.64899 69.7046 10.2875C69.6395 10.9039 69.5636 11.4983 69.4768 12.0708H69.9974C70.2577 10.6177 70.6264 9.40681 71.1036 8.4381C71.6025 7.46939 72.2424 6.74286 73.0232 6.25851C73.8258 5.77415 74.791 5.53197 75.9189 5.53197C76.9384 5.53197 77.7952 5.71911 78.4893 6.09338C79.1834 6.46766 79.7365 6.97403 80.1486 7.6125C80.5607 8.22895 80.8752 8.91145 81.0921 9.66C81.309 10.4085 81.45 11.1791 81.5151 11.9717C81.5802 12.7423 81.6127 13.4578 81.6127 14.1183V23.2329H77.5132V14.6136C77.5132 13.9091 77.4698 13.2376 77.383 12.5991C77.2963 11.9387 77.1445 11.3552 76.9275 10.8489C76.7323 10.3205 76.4287 9.90217 76.0165 9.59395C75.6044 9.28572 75.0622 9.13161 74.3897 9.13161C73.5221 9.13161 72.7738 9.41782 72.1448 9.99024C71.5374 10.5627 71.0602 11.3773 70.7132 12.434C70.3878 13.4688 70.2035 14.7017 70.1601 16.1327V23.2329H66.028Z" fill="white"/>
<path d="M104.207 14.4918C104.207 19.7524 99.9426 24.0169 94.682 24.0169C89.4215 24.0169 85.1569 19.7524 85.1569 14.4918C85.1569 9.23129 89.4215 4.96676 94.682 4.96676C99.9426 4.96676 104.207 9.23129 104.207 14.4918Z" fill="#E53535"/>
<path d="M89.729 15.8528V13.1309H99.4446V15.8528H89.729ZM94.5989 11.6727C94.0982 11.6727 93.7024 11.5431 93.4117 11.2839C93.121 11.0085 92.9756 10.6277 92.9756 10.1417C92.9756 9.63941 93.121 9.25867 93.4117 8.99944C93.7186 8.72401 94.1143 8.58629 94.5989 8.58629C95.0835 8.58629 95.4711 8.72401 95.7619 8.99944C96.0688 9.25867 96.2222 9.63941 96.2222 10.1417C96.2222 10.6115 96.0688 10.9842 95.7619 11.2596C95.4711 11.535 95.0835 11.6727 94.5989 11.6727ZM94.5747 20.3974C94.0901 20.3974 93.7024 20.2678 93.4117 20.0086C93.121 19.7331 92.9756 19.3605 92.9756 18.8906C92.9756 18.3722 93.121 17.9833 93.4117 17.7241C93.7186 17.4649 94.1143 17.3353 94.5989 17.3353C95.0835 17.3353 95.4711 17.473 95.7619 17.7484C96.0688 18.0076 96.2222 18.3803 96.2222 18.8663C96.2222 19.3524 96.0688 19.7331 95.7619 20.0086C95.455 20.2678 95.0592 20.3974 94.5747 20.3974Z" fill="white"/>
</svg>
